<svg width="23" height="23" viewBox="0 0 23 23" fill="none" xmlns="http://www.w3.org/2000/svg">
<mask id="path-1-outside-1_90_149" maskUnits="userSpaceOnUse" x="2.41577" y="4.59908" width="12" height="13" fill="black">
<rect fill="white" x="2.41577" y="4.59908" width="12" height="13"/>
<path d="M13.5259 14.2093C13.5259 15.2666 13.1955 16.0661 12.5348 16.6079C11.8872 17.1498 10.7375 17.4207 9.08556 17.4207H2.90078V4.8727H3.67388H8.88733C9.9842 4.8727 10.8366 4.99164 11.4445 5.22952C12.0656 5.45418 12.5017 5.79117 12.7528 6.24049C13.0039 6.68981 13.1295 7.25146 13.1295 7.92545C13.1295 8.85052 12.9048 9.57076 12.4555 10.0862C12.0194 10.5883 11.1934 10.8923 9.9776 10.998V11.0575C10.8762 11.1236 11.5833 11.2755 12.0987 11.5134C12.6141 11.7381 12.9775 12.0685 13.1889 12.5046C13.4136 12.9407 13.5259 13.5089 13.5259 14.2093ZM8.01512 7.3704H6.07246V9.82846H8.01512C8.66267 9.82846 9.13182 9.74916 9.42255 9.59058C9.71329 9.41878 9.85866 9.0884 9.85866 8.59943C9.85866 8.12368 9.71329 7.7999 9.42255 7.6281C9.13182 7.4563 8.66267 7.3704 8.01512 7.3704ZM8.41158 12.4253H6.07246V14.9428H8.41158C9.05913 14.9428 9.52828 14.8569 9.81901 14.6851C10.1098 14.5001 10.2551 14.1631 10.2551 13.6741C10.2551 13.1719 10.1098 12.8416 9.81901 12.683C9.52828 12.5112 9.05913 12.4253 8.41158 12.4253Z"/>
</mask>
<path d="M13.5259 14.2093C13.5259 15.2666 13.1955 16.0661 12.5348 16.6079C11.8872 17.1498 10.7375 17.4207 9.08556 17.4207H2.90078V4.8727H3.67388H8.88733C9.9842 4.8727 10.8366 4.99164 11.4445 5.22952C12.0656 5.45418 12.5017 5.79117 12.7528 6.24049C13.0039 6.68981 13.1295 7.25146 13.1295 7.92545C13.1295 8.85052 12.9048 9.57076 12.4555 10.0862C12.0194 10.5883 11.1934 10.8923 9.9776 10.998V11.0575C10.8762 11.1236 11.5833 11.2755 12.0987 11.5134C12.6141 11.7381 12.9775 12.0685 13.1889 12.5046C13.4136 12.9407 13.5259 13.5089 13.5259 14.2093ZM8.01512 7.3704H6.07246V9.82846H8.01512C8.66267 9.82846 9.13182 9.74916 9.42255 9.59058C9.71329 9.41878 9.85866 9.0884 9.85866 8.59943C9.85866 8.12368 9.71329 7.7999 9.42255 7.6281C9.13182 7.4563 8.66267 7.3704 8.01512 7.3704ZM8.41158 12.4253H6.07246V14.9428H8.41158C9.05913 14.9428 9.52828 14.8569 9.81901 14.6851C10.1098 14.5001 10.2551 14.1631 10.2551 13.6741C10.2551 13.1719 10.1098 12.8416 9.81901 12.683C9.52828 12.5112 9.05913 12.4253 8.41158 12.4253Z" fill="#D9D9D9"/>
<path d="M12.5348 16.6079L12.4899 16.5532L12.4893 16.5536L12.5348 16.6079ZM2.90078 17.4207H2.82999V17.4915H2.90078V17.4207ZM2.90078 4.8727V4.80191H2.82999V4.8727H2.90078ZM11.4445 5.22952L11.4187 5.29547L11.4204 5.29609L11.4445 5.22952ZM12.7528 6.24049L12.691 6.27503L12.691 6.27503L12.7528 6.24049ZM12.4555 10.0862L12.4021 10.0396L12.402 10.0397L12.4555 10.0862ZM9.9776 10.998L9.97146 10.9275L9.9068 10.9331V10.998H9.9776ZM9.9776 11.0575H9.9068V11.1233L9.97241 11.1281L9.9776 11.0575ZM12.0987 11.5134L12.069 11.5777L12.0704 11.5783L12.0987 11.5134ZM13.1889 12.5046L13.1252 12.5355L13.126 12.537L13.1889 12.5046ZM6.07246 7.3704V7.29961H6.00167V7.3704H6.07246ZM6.07246 9.82846H6.00167V9.89925H6.07246V9.82846ZM9.42255 9.59058L9.45647 9.65277L9.45857 9.65153L9.42255 9.59058ZM9.42255 7.6281L9.45857 7.56715L9.45857 7.56715L9.42255 7.6281ZM6.07246 12.4253V12.3545H6.00167V12.4253H6.07246ZM6.07246 14.9428H6.00167V15.0136H6.07246V14.9428ZM9.81901 14.6851L9.85505 14.7461L9.85702 14.7448L9.81901 14.6851ZM9.81901 12.683L9.78298 12.744L9.78511 12.7451L9.81901 12.683ZM13.5259 14.2093H13.4551C13.4551 15.2509 13.1304 16.0279 12.4899 16.5532L12.5348 16.6079L12.5797 16.6627C13.2607 16.1043 13.5967 15.2823 13.5967 14.2093H13.5259ZM12.5348 16.6079L12.4893 16.5536C11.8621 17.0785 10.7345 17.3499 9.08556 17.3499V17.4207V17.4915C10.7405 17.4915 11.9124 17.221 12.5802 16.6622L12.5348 16.6079ZM9.08556 17.4207V17.3499H2.90078V17.4207V17.4915H9.08556V17.4207ZM2.90078 17.4207H2.97158V4.8727H2.90078H2.82999V17.4207H2.90078ZM2.90078 4.8727V4.9435H3.67388V4.8727V4.80191H2.90078V4.8727ZM3.67388 4.8727V4.9435H8.88733V4.8727V4.80191H3.67388V4.8727ZM8.88733 4.8727V4.9435C9.98056 4.9435 10.8228 5.06225 11.4187 5.29545L11.4445 5.22952L11.4703 5.16359C10.8504 4.92103 9.98785 4.80191 8.88733 4.80191V4.8727ZM11.4445 5.22952L11.4204 5.29609C12.0302 5.51664 12.4504 5.84439 12.691 6.27503L12.7528 6.24049L12.8146 6.20595C12.5531 5.73795 12.1011 5.39171 11.4686 5.16294L11.4445 5.22952ZM12.7528 6.24049L12.691 6.27503C12.9347 6.71102 13.0587 7.25993 13.0587 7.92545H13.1295H13.2003C13.2003 7.243 13.0732 6.6686 12.8146 6.20595L12.7528 6.24049ZM13.1295 7.92545H13.0587C13.0587 8.8395 12.8368 9.54107 12.4021 10.0396L12.4555 10.0862L12.5088 10.1327C12.9728 9.60044 13.2003 8.86154 13.2003 7.92545H13.1295ZM12.4555 10.0862L12.402 10.0397C11.9847 10.5203 11.1827 10.8222 9.97146 10.9275L9.9776 10.998L9.98373 11.0685C11.2041 10.9624 12.054 10.6564 12.5089 10.1326L12.4555 10.0862ZM9.9776 10.998H9.9068V11.0575H9.9776H10.0484V10.998H9.9776ZM9.9776 11.0575L9.97241 11.1281C10.867 11.1939 11.5645 11.3448 12.069 11.5777L12.0987 11.5134L12.1283 11.4491C11.602 11.2062 10.8855 11.0533 9.98279 10.9869L9.9776 11.0575ZM12.0987 11.5134L12.0704 11.5783C12.5729 11.7974 12.9223 12.1169 13.1252 12.5354L13.1889 12.5046L13.2526 12.4737C13.0327 12.02 12.6552 11.6788 12.1269 11.4485L12.0987 11.5134ZM13.1889 12.5046L13.126 12.537C13.3438 12.9597 13.4551 13.5157 13.4551 14.2093H13.5259H13.5967C13.5967 13.5022 13.4834 12.9216 13.2519 12.4721L13.1889 12.5046ZM8.01512 7.3704V7.29961H6.07246V7.3704V7.4412H8.01512V7.3704ZM6.07246 7.3704H6.00167V9.82846H6.07246H6.14326V7.3704H6.07246ZM6.07246 9.82846V9.89925H8.01512V9.82846V9.75766H6.07246V9.82846ZM8.01512 9.82846V9.89925C8.66522 9.89925 9.14943 9.8202 9.45645 9.65273L9.42255 9.59058L9.38865 9.52843C9.11421 9.67813 8.66012 9.75766 8.01512 9.75766V9.82846ZM9.42255 9.59058L9.45857 9.65153C9.77969 9.46177 9.92946 9.10112 9.92946 8.59943H9.85866H9.78786C9.78786 9.07567 9.64689 9.37578 9.38654 9.52963L9.42255 9.59058ZM9.85866 8.59943H9.92946C9.92946 8.11 9.77912 7.75657 9.45857 7.56715L9.42255 7.6281L9.38654 7.68905C9.64746 7.84324 9.78786 8.13735 9.78786 8.59943H9.85866ZM9.42255 7.6281L9.45857 7.56715C9.15084 7.38531 8.66564 7.29961 8.01512 7.29961V7.3704V7.4412C8.6597 7.4412 9.11279 7.52729 9.38654 7.68905L9.42255 7.6281ZM8.41158 12.4253V12.3545H6.07246V12.4253V12.4961H8.41158V12.4253ZM6.07246 12.4253H6.00167V14.9428H6.07246H6.14326V12.4253H6.07246ZM6.07246 14.9428V15.0136H8.41158V14.9428V14.872H6.07246V14.9428ZM8.41158 14.9428V15.0136C9.0621 15.0136 9.5473 14.9279 9.85503 14.746L9.81901 14.6851L9.783 14.6241C9.50925 14.7859 9.05616 14.872 8.41158 14.872V14.9428ZM9.81901 14.6851L9.85702 14.7448C10.176 14.5418 10.3259 14.1762 10.3259 13.6741H10.2551H10.1843C10.1843 14.15 10.0435 14.4583 9.781 14.6254L9.81901 14.6851ZM10.2551 13.6741H10.3259C10.3259 13.1607 10.1769 12.7975 9.85291 12.6208L9.81901 12.683L9.78511 12.7451C10.0426 12.8856 10.1843 13.1832 10.1843 13.6741H10.2551ZM9.81901 12.683L9.85503 12.622C9.5473 12.4402 9.0621 12.3545 8.41158 12.3545V12.4253V12.4961C9.05616 12.4961 9.50925 12.5822 9.783 12.7439L9.81901 12.683Z" fill="black" mask="url(#path-1-outside-1_90_149)"/>
<path d="M14.8281 4.87305C15.1671 4.87305 15.489 4.88272 15.7939 4.90039H19.3457C19.8978 4.90065 20.3457 5.34827 20.3457 5.90039V7.90039H20.3213C20.3268 7.92185 20.3335 7.94312 20.3389 7.96484C20.5371 8.75776 20.6357 9.78263 20.6357 11.0381C20.6357 12.3462 20.5371 13.4165 20.3389 14.249C20.1406 15.0816 19.8165 15.7289 19.3672 16.1914C18.9179 16.6539 18.3231 16.9781 17.583 17.1631C16.843 17.3348 15.9247 17.4209 14.8281 17.4209H9.33691V4.87305H14.8281ZM12.5088 14.7441H14.3721C15.1384 14.7441 15.7397 14.659 16.1758 14.4873C16.6251 14.3155 16.9429 13.9651 17.1279 13.4365C17.3261 12.908 17.4248 12.1083 17.4248 11.0381C17.4248 10.0209 17.326 9.2673 17.1279 8.77832C16.9429 8.27614 16.6251 7.94569 16.1758 7.78711C15.7397 7.62854 15.1385 7.54883 14.3721 7.54883H12.5088V14.7441ZM18.2529 6C18.2385 6.23577 18.1377 6.45792 17.9707 6.625C17.8037 6.792 17.5814 6.89266 17.3457 6.90723V6.91113C17.5813 6.9257 17.8037 7.02548 17.9707 7.19238C18.1378 7.35949 18.2385 7.58247 18.2529 7.81836H18.2559C18.2703 7.58248 18.371 7.35949 18.5381 7.19238C18.7051 7.0255 18.9274 6.92568 19.1631 6.91113V6.90723C18.9273 6.89268 18.7051 6.79203 18.5381 6.625C18.3711 6.45791 18.2703 6.23581 18.2559 6H18.2529ZM19.2539 6C19.2467 6.11794 19.1959 6.22894 19.1123 6.3125C19.0287 6.39606 18.9177 6.44687 18.7998 6.4541V6.45508C18.9177 6.46231 19.0287 6.51312 19.1123 6.59668C19.1958 6.68023 19.2467 6.79126 19.2539 6.90918H19.2549C19.2621 6.79124 19.3129 6.68023 19.3965 6.59668C19.48 6.51313 19.591 6.46232 19.709 6.45508V6.4541C19.5911 6.44686 19.48 6.39603 19.3965 6.3125C19.3129 6.22895 19.2621 6.11794 19.2549 6H19.2539Z" fill="#010101"/>
<path d="M9.33716 4.88153C10.2199 4.91036 10.9225 5.02491 11.4446 5.22919C12.0657 5.45385 12.5021 5.79158 12.7532 6.24091C12.9557 6.60357 13.0745 7.03955 13.1135 7.54852H12.509V10.0173C12.4908 10.0399 12.4744 10.0647 12.4553 10.0866C12.0191 10.5886 11.1932 10.892 9.97778 10.9977V11.0573C10.8764 11.1234 11.5835 11.2755 12.0989 11.5134C12.2486 11.5787 12.3849 11.6539 12.509 11.737V14.7448H13.4954C13.3994 15.5407 13.0786 16.1618 12.5344 16.6081C11.9202 17.1218 10.8545 17.3882 9.33716 17.4147V14.8591C9.53133 14.8169 9.69201 14.76 9.8186 14.6852C10.1093 14.5003 10.2551 14.1633 10.2551 13.6745C10.2551 13.1723 10.1093 12.8419 9.8186 12.6833C9.69195 12.6085 9.53148 12.5507 9.33716 12.5085V9.63055C9.3669 9.61732 9.39637 9.60509 9.4231 9.59052C9.71358 9.41865 9.85864 9.08806 9.85864 8.5993C9.85862 8.12369 9.71372 7.79943 9.4231 7.62762C9.39627 7.61178 9.36702 7.59807 9.33716 7.58368V4.88153Z" fill="#C7C7C7"/>
</svg>
